<?xml version="1.0" standalone="no"?>
<!DOCTYPE svg PUBLIC "-//W3C//DTD SVG 20010904//EN"
 "http://www.w3.org/TR/2001/REC-SVG-20010904/DTD/svg10.dtd">
<svg version="1.0" xmlns="http://www.w3.org/2000/svg"
 width="1920.000000pt" height="1920.000000pt" viewBox="0 0 1920.000000 1920.000000"
 preserveAspectRatio="xMidYMid meet">
<metadata>
Created by potrace 1.14, written by Peter Selinger 2001-2017
</metadata>
<g transform="translate(0.000000,1920.000000) scale(0.100000,-0.100000)"
fill="#000000" stroke="none">
<path d="M8626 15683 c-3 -4 -37 -8 -74 -10 -83 -4 -154 -13 -167 -22 -5 -4
-31 -7 -57 -6 -27 0 -48 -3 -48 -6 0 -4 -19 -10 -42 -13 -24 -3 -56 -8 -73
-11 -16 -3 -47 -8 -67 -11 -21 -4 -38 -9 -38 -14 0 -4 -18 -6 -40 -5 -22 1
-40 -2 -40 -7 0 -4 -47 -8 -104 -8 -58 0 -107 -4 -110 -9 -3 -5 -37 -8 -76 -6
-38 1 -70 -2 -70 -6 0 -4 -19 -10 -42 -13 -76 -10 -83 -12 -114 -29 -17 -9
-34 -14 -37 -11 -3 3 -14 1 -25 -5 -27 -14 -92 -20 -92 -8 0 5 -7 3 -16 -4 -9
-7 -26 -14 -37 -15 -39 -2 -87 -16 -87 -25 0 -5 -10 -7 -22 -5 -22 3 -30 1
-73 -21 -11 -5 -28 -9 -37 -7 -10 1 -18 -2 -18 -7 0 -5 -13 -9 -30 -9 -16 0
-30 -5 -30 -11 0 -5 -4 -8 -9 -4 -5 3 -20 1 -33 -4 -22 -9 -57 -22 -68 -26 -3
-1 -17 -5 -32 -9 -16 -5 -28 -13 -28 -19 0 -6 -3 -8 -6 -4 -3 3 -15 -3 -27
-13 -11 -11 -24 -17 -29 -14 -4 3 -8 0 -8 -6 0 -6 -18 -19 -40 -29 -22 -10
-37 -21 -32 -26 4 -4 0 -6 -10 -2 -9 3 -23 -2 -33 -13 -10 -11 -26 -22 -36
-25 -11 -4 -17 -11 -13 -16 3 -6 0 -10 -7 -9 -21 3 -59 -11 -59 -22 0 -5 -4
-6 -10 -3 -5 3 -10 2 -10 -3 0 -6 -11 -13 -25 -16 -14 -4 -34 -15 -45 -26 -11
-11 -21 -19 -22 -18 -8 5 -58 -36 -58 -48 0 -8 -6 -11 -15 -8 -8 4 -15 1 -15
-6 0 -7 -7 -10 -15 -6 -8 3 -15 2 -15 -3 0 -5 -13 -14 -30 -21 -16 -7 -30 -16
-30 -21 0 -4 -9 -6 -20 -4 -11 2 -20 0 -20 -5 0 -5 -13 -21 -28 -37 -16 -15
-30 -32 -33 -38 -12 -31 -68 -72 -91 -67 -5 1 -8 -2 -8 -8 0 -5 -7 -10 -15
-10 -7 0 -18 -6 -22 -13 -4 -6 -20 -18 -35 -26 -16 -8 -28 -21 -28 -28 0 -8
-4 -12 -8 -9 -5 3 -15 -7 -23 -22 -8 -15 -18 -30 -24 -34 -5 -4 -10 -11 -10
-16 0 -5 -37 -46 -82 -91 -46 -45 -83 -87 -83 -93 0 -7 -5 -6 -15 2 -13 10
-15 9 -15 -9 0 -11 -5 -21 -11 -21 -15 0 -39 -26 -32 -34 4 -3 1 -6 -6 -6 -18
0 -192 -174 -187 -187 3 -7 -4 -15 -15 -18 -10 -4 -19 -15 -19 -25 0 -10 -7
-25 -15 -34 -8 -8 -15 -24 -15 -35 0 -11 -5 -23 -10 -26 -6 -4 -8 -11 -4 -16
3 -5 0 -17 -7 -25 -7 -8 -13 -27 -14 -42 -2 -43 -7 -51 -61 -106 -27 -28 -53
-59 -57 -68 -3 -10 -12 -18 -18 -18 -6 0 -9 -9 -6 -20 3 -11 1 -20 -3 -20 -5
0 -14 -16 -21 -35 -7 -19 -17 -35 -22 -35 -4 0 -6 -4 -3 -9 3 -4 -11 -25 -31
-45 -20 -20 -33 -36 -28 -36 5 0 -2 -11 -15 -25 -13 -14 -21 -25 -17 -25 3 0
-1 -24 -10 -52 -9 -29 -16 -61 -15 -70 0 -10 -3 -18 -8 -18 -10 0 -20 -58 -23
-142 -1 -36 -5 -70 -9 -74 -10 -10 -10 -124 0 -124 4 0 7 -61 7 -136 0 -74 3
-138 7 -140 5 -3 4 -13 0 -22 -5 -9 -8 -39 -7 -65 0 -27 -3 -50 -7 -53 -11 -7
-10 -194 0 -194 10 0 9 -66 -1 -76 -4 -4 -7 -15 -7 -23 0 -17 -33 -51 -50 -51
-6 0 -10 -5 -10 -11 0 -5 -4 -8 -9 -4 -5 3 -12 1 -16 -5 -3 -5 -21 -10 -40
-10 -19 0 -36 -4 -40 -10 -3 -5 -11 -7 -18 -4 -15 5 -79 -54 -71 -67 3 -5 1
-9 -4 -9 -13 0 -20 -138 -9 -157 4 -7 -1 -16 -10 -22 -10 -6 -15 -11 -10 -11
4 0 0 -15 -10 -32 -9 -18 -17 -40 -18 -50 0 -9 -3 -20 -7 -24 -5 -4 -8 -25 -8
-47 0 -28 7 -46 27 -67 15 -16 30 -27 35 -24 4 3 11 -2 14 -10 3 -9 10 -14 14
-11 11 7 60 -41 60 -59 0 -8 5 -16 12 -18 6 -2 12 -21 12 -41 1 -20 5 -37 9
-37 5 0 5 -5 2 -10 -4 -6 -7 -31 -7 -55 0 -25 -4 -47 -9 -51 -13 -8 -11 -24 4
-24 6 0 13 -10 13 -22 1 -27 25 -90 38 -99 5 -4 6 -11 2 -17 -3 -6 -2 -13 4
-17 5 -3 10 -15 10 -26 0 -13 -4 -18 -12 -13 -8 5 -9 2 -5 -9 6 -17 -39 -61
-53 -52 -5 3 -12 -4 -15 -16 -4 -11 -12 -18 -19 -16 -7 3 -18 -4 -24 -14 -7
-10 -16 -18 -20 -16 -4 1 -18 -8 -32 -20 -13 -13 -30 -23 -37 -23 -7 0 -12 -3
-11 -7 1 -5 -5 -21 -12 -38 -23 -52 -39 -130 -44 -212 -1 -29 -6 -56 -9 -60
-4 -3 -7 -19 -7 -35 0 -15 -5 -28 -11 -28 -6 0 -8 -8 -4 -19 3 -11 0 -21 -8
-24 -10 -3 -13 -15 -10 -31 3 -16 1 -26 -6 -26 -7 0 -10 -4 -6 -9 3 -5 1 -12
-4 -15 -8 -6 -25 -64 -22 -79 1 -4 -6 -21 -14 -37 -12 -23 -13 -30 -3 -30 9
-1 9 -4 -2 -13 -14 -11 -18 -24 -24 -72 -3 -34 -18 -69 -33 -80 -8 -6 -15 -17
-17 -25 -3 -14 -6 -24 -24 -70 -3 -8 -6 -22 -6 -30 -1 -8 -4 -19 -7 -25 -3 -5
-6 -26 -8 -45 -2 -19 -6 -37 -10 -40 -3 -3 -6 -14 -7 -25 -1 -21 -12 -70 -21
-95 -14 -36 -27 -358 -15 -373 5 -7 8 -21 6 -33 -2 -11 4 -29 14 -40 9 -10 18
-28 20 -39 2 -11 4 -27 6 -37 1 -9 7 -22 12 -30 6 -7 9 -23 8 -35 0 -13 2 -23
6 -23 12 0 18 -33 10 -55 -4 -12 -1 -29 8 -42 8 -13 11 -23 6 -23 -4 0 -3 -5
4 -12 7 -7 12 -22 12 -35 0 -13 4 -23 8 -23 5 0 8 -15 7 -32 -1 -18 2 -35 6
-38 4 -3 10 -23 12 -45 3 -22 10 -41 16 -43 6 -2 11 -8 11 -14 0 -5 16 -26 35
-45 19 -19 35 -38 35 -42 0 -4 32 -41 71 -82 39 -41 76 -81 83 -89 42 -50 40
-150 -3 -150 -6 0 -11 -4 -11 -9 0 -6 -9 -8 -20 -6 -11 2 -20 -1 -20 -7 0 -6
-8 -8 -19 -5 -12 3 -32 -8 -57 -32 -39 -37 -78 -81 -80 -91 -2 -17 -29 -60
-36 -60 -4 0 -8 -9 -8 -19 0 -11 -4 -22 -9 -25 -4 -3 -7 -17 -6 -31 2 -14 0
-25 -5 -25 -7 0 -12 -16 -24 -86 -2 -12 -9 -30 -15 -41 -5 -11 -7 -23 -4 -27
3 -3 2 -6 -4 -6 -5 0 -10 -6 -11 -12 -1 -7 -3 -30 -6 -52 -2 -21 -8 -41 -13
-45 -5 -3 -8 -32 -8 -65 0 -36 -4 -60 -11 -63 -8 -3 -10 -14 -4 -34 5 -16 5
-31 0 -34 -5 -3 -5 -16 -1 -28 5 -12 5 -34 1 -48 -4 -15 -4 -32 0 -39 5 -7 4
-24 -1 -37 -5 -13 -5 -23 0 -23 5 0 6 -12 2 -27 -5 -16 -3 -43 4 -63 6 -19 11
-54 10 -78 0 -24 3 -45 7 -48 4 -3 8 -23 8 -45 0 -21 4 -39 9 -39 5 0 8 -11 6
-25 -1 -14 2 -25 6 -25 5 0 9 -11 9 -25 0 -14 4 -25 9 -25 6 0 8 -9 6 -20 -2
-11 0 -20 6 -20 5 0 9 -9 9 -20 0 -11 5 -20 12 -20 6 0 8 -3 5 -6 -7 -7 29
-63 48 -76 5 -4 10 -11 10 -15 0 -5 10 -19 23 -33 12 -13 22 -28 22 -33 0 -5
11 -18 25 -29 14 -11 23 -23 20 -28 -3 -5 6 -17 20 -28 14 -11 25 -27 25 -35
0 -8 7 -17 15 -21 8 -3 15 -12 15 -21 0 -8 7 -15 15 -15 8 0 15 -7 15 -15 0
-9 7 -18 15 -21 8 -4 12 -10 9 -15 -3 -5 0 -9 6 -9 17 0 60 -51 60 -71 0 -10
5 -21 11 -24 6 -4 8 -14 5 -22 -4 -9 -2 -21 4 -28 6 -7 10 -17 9 -21 -1 -5 0
-11 1 -14 3 -9 11 -55 14 -90 2 -19 6 -42 9 -50 5 -13 8 -30 21 -120 2 -14 7
-33 11 -42 4 -9 3 -22 -1 -29 -4 -8 -3 -9 4 -5 7 4 13 1 13 -8 1 -9 2 -24 3
-33 1 -10 7 -27 13 -39 7 -11 14 -34 17 -50 3 -16 9 -30 14 -32 5 -1 6 -16 4
-32 -3 -19 0 -30 8 -30 7 0 10 -7 7 -15 -4 -8 -2 -17 3 -20 6 -4 10 -17 10
-31 0 -13 4 -24 9 -24 6 0 8 -9 6 -20 -2 -10 6 -34 19 -52 21 -31 39 -69 36
-76 -1 -2 10 -12 24 -23 15 -11 26 -27 26 -35 0 -8 7 -17 15 -20 8 -4 15 -15
15 -25 0 -10 5 -19 10 -19 6 0 8 -11 6 -25 -3 -14 0 -25 5 -25 5 0 9 -8 9 -19
0 -10 7 -35 15 -55 9 -20 13 -41 10 -46 -3 -4 1 -14 8 -22 7 -7 13 -20 13 -28
0 -8 6 -31 13 -50 18 -46 16 -41 26 -75 4 -16 11 -32 15 -35 8 -6 33 -51 52
-93 7 -15 16 -27 20 -27 4 0 8 -9 8 -20 0 -11 4 -20 9 -20 5 0 12 -11 15 -25
5 -21 136 -164 136 -148 0 2 15 -7 33 -21 17 -15 37 -30 43 -35 16 -13 58 -35
67 -36 16 0 78 -79 84 -106 3 -16 10 -29 15 -29 6 0 8 -7 4 -15 -3 -8 -1 -15
4 -15 6 0 10 -6 10 -13 0 -15 64 -77 78 -77 5 0 17 -11 28 -24 10 -14 22 -22
27 -19 6 3 7 1 3 -5 -3 -6 -1 -17 6 -24 18 -19 38 -56 38 -68 0 -6 9 -23 21
-39 11 -15 22 -41 23 -57 4 -41 17 -87 29 -101 5 -7 7 -13 3 -13 -11 0 26 -65
43 -74 21 -13 64 -17 71 -8 7 10 42 32 63 38 9 4 17 10 17 15 0 5 7 6 15 3 9
-4 15 0 15 9 0 9 12 28 28 44 38 41 63 73 55 73 -3 0 1 8 9 18 11 12 14 38 13
95 -1 42 2 77 6 77 4 0 10 37 12 83 7 110 11 144 20 153 4 4 7 16 7 26 0 11 7
26 15 35 8 8 13 19 10 24 -11 16 39 9 61 -9 18 -15 45 -55 50 -72 0 -3 4 -14
8 -25 10 -26 17 -49 17 -52 -1 -2 8 -12 19 -23 12 -12 18 -26 14 -32 -4 -6 -3
-9 2 -6 12 7 64 -48 55 -58 -3 -4 -1 -4 5 -1 7 4 23 -2 36 -13 14 -11 28 -17
31 -14 3 3 8 -4 12 -15 3 -11 12 -18 19 -15 8 3 21 -5 30 -18 9 -13 18 -21 21
-18 2 3 13 -3 25 -12 11 -10 20 -15 20 -12 0 3 13 -4 28 -15 16 -11 40 -23 55
-26 15 -4 27 -12 27 -17 0 -6 7 -8 15 -4 8 3 15 1 15 -5 0 -11 53 -67 57 -59
1 3 11 -2 21 -11 10 -8 23 -14 29 -12 6 2 14 -1 18 -6 3 -6 19 -11 34 -11 15
0 31 -3 35 -7 4 -5 22 -9 39 -11 69 -6 87 -9 92 -14 3 -3 21 -2 40 2 18 4 37
4 42 -1 4 -4 23 -10 41 -14 24 -4 34 -1 38 10 5 11 10 13 19 5 6 -5 14 -8 17
-5 2 3 25 5 49 5 24 0 54 0 67 0 12 0 22 -5 22 -11 0 -5 6 -9 13 -8 6 1 26 -4
42 -11 17 -7 37 -14 45 -15 20 -1 91 -36 108 -51 6 -7 12 -17 12 -23 0 -18 67
-78 84 -75 10 1 20 -4 22 -11 3 -8 11 -12 18 -9 7 3 22 -4 35 -15 12 -11 28
-18 35 -15 7 3 19 -2 26 -11 7 -8 18 -15 25 -15 7 0 15 -7 19 -15 3 -8 12 -15
19 -15 8 0 20 -7 27 -15 15 -19 76 -20 87 -2 4 8 20 22 36 32 15 9 27 22 27
27 0 12 41 47 55 48 15 0 42 -34 37 -48 -2 -7 2 -12 8 -12 7 0 10 -7 7 -15 -4
-8 -2 -17 2 -19 11 -7 -3 -84 -18 -99 -16 -16 -14 -47 3 -47 8 0 17 4 20 8 3
5 18 8 33 7 15 0 34 5 41 12 11 11 19 10 43 -8 16 -11 29 -27 29 -35 0 -8 4
-14 9 -14 5 0 8 -8 7 -17 -3 -19 15 -58 27 -61 4 -1 19 -15 33 -32 15 -17 31
-29 38 -28 20 4 95 -41 107 -64 7 -13 18 -29 26 -36 7 -8 11 -17 8 -22 -3 -4
2 -10 10 -14 8 -3 15 -11 15 -18 0 -8 9 -20 19 -28 11 -7 18 -17 15 -21 -11
-18 37 -49 74 -49 42 0 90 38 119 94 9 17 19 33 22 36 3 3 14 22 23 42 10 21
21 38 25 38 5 0 8 34 8 75 1 41 -3 75 -7 75 -4 0 -8 7 -8 15 0 8 5 15 11 15 6
0 9 7 5 15 -13 34 24 12 48 -27 14 -24 29 -42 33 -41 18 5 85 -11 98 -23 7 -8
16 -14 20 -14 3 0 34 -29 68 -65 62 -64 132 -106 139 -83 3 7 9 6 18 -3 8 -8
34 -14 58 -14 23 0 42 -3 42 -7 0 -4 9 -8 20 -8 11 0 20 -5 20 -12 0 -6 3 -9
6 -5 4 3 21 -1 38 -10 17 -10 35 -16 40 -15 4 2 14 -2 22 -9 8 -6 23 -9 35 -6
12 3 22 0 25 -8 3 -7 14 -12 25 -10 10 2 19 0 19 -5 0 -5 14 -11 30 -15 17 -4
30 -11 30 -16 0 -5 11 -9 25 -9 14 0 25 -4 25 -8 0 -5 16 -8 35 -7 19 1 35 -1
35 -6 0 -6 59 -13 155 -19 33 -2 86 15 155 50 36 19 67 34 70 35 10 1 61 40
94 72 19 18 37 33 41 33 9 0 40 32 38 39 -2 3 3 6 10 6 6 0 16 10 22 22 5 13
13 23 18 23 4 0 6 4 3 8 -2 4 22 26 55 47 61 41 94 46 115 19 7 -8 22 -17 35
-19 12 -3 25 -9 28 -13 5 -8 46 -25 63 -27 3 0 10 -3 14 -8 12 -11 122 -8 130
4 3 6 14 9 23 6 16 -4 47 11 49 23 0 3 3 12 6 20 7 23 16 81 19 122 1 20 5 40
10 44 4 4 7 17 7 29 0 13 7 28 15 35 8 7 15 8 15 3 0 -10 66 -10 76 0 10 10
44 9 44 -2 0 -4 11 -7 25 -6 14 2 25 -1 25 -6 0 -5 9 -9 20 -9 11 0 20 -4 20
-9 0 -5 16 -8 35 -7 20 2 38 -1 41 -5 3 -5 27 -9 55 -9 27 0 49 -4 49 -8 0 -4
19 -8 43 -7 23 0 44 -3 47 -6 8 -12 94 -13 115 -2 11 5 66 9 123 9 57 -1 106
2 108 6 3 5 34 8 69 8 35 0 67 5 70 10 3 6 17 8 31 6 13 -3 30 2 38 9 7 8 16
11 19 8 4 -3 14 -2 24 2 26 12 25 12 61 20 17 4 32 12 32 17 0 5 4 7 9 3 5 -3
17 3 27 12 10 10 21 18 26 18 5 0 12 5 16 10 10 16 72 58 72 49 0 -3 17 6 38
22 49 37 63 52 66 67 1 7 9 23 18 36 10 13 15 28 12 33 -3 4 0 8 5 8 6 0 11 6
11 13 0 6 12 23 25 36 14 12 23 27 20 32 -3 4 3 13 14 19 12 6 18 18 16 30 -2
11 0 20 5 20 4 0 8 21 8 46 0 26 4 50 9 53 10 8 12 161 1 161 -4 0 -7 16 -6
35 1 19 -5 41 -12 50 -7 8 -10 18 -6 22 3 3 -3 13 -15 21 -11 8 -18 20 -15 28
3 8 0 14 -5 14 -6 0 -9 9 -6 20 3 10 0 18 -5 17 -6 -1 -20 16 -32 39 -13 22
-37 54 -54 71 -31 29 -45 83 -21 83 5 0 8 4 4 9 -3 5 -1 12 5 16 5 3 10 21 10
40 0 19 5 37 10 40 6 4 8 10 6 14 -8 12 47 57 79 65 17 4 45 8 63 9 17 1 32 5
32 10 0 5 11 7 25 5 17 -4 25 -1 25 8 0 8 3 14 8 13 13 -2 52 13 52 20 0 4 17
7 38 7 20 -1 36 3 34 7 -2 5 6 17 17 26 11 10 17 22 13 26 -4 5 -2 5 5 1 6 -3
14 -2 18 4 3 5 16 10 29 10 12 0 26 3 30 7 3 4 12 8 19 10 61 13 92 24 95 32
2 6 8 11 13 11 17 0 67 61 64 79 -2 16 89 116 106 116 5 0 19 10 31 22 13 12
32 31 43 42 63 61 115 123 115 136 0 9 3 14 8 12 8 -5 33 18 27 25 -3 2 33 43
80 91 47 47 85 89 85 93 0 7 38 54 91 111 16 18 29 37 29 43 0 5 3 10 8 10 13
0 41 60 36 75 -4 8 -1 15 5 15 6 0 11 8 11 19 0 10 6 24 14 30 8 7 17 23 20
37 4 14 11 22 16 19 6 -3 10 0 10 8 0 7 11 24 25 37 13 12 23 27 22 33 -1 6 5
11 13 12 8 0 15 5 15 10 1 6 18 43 38 82 20 40 37 79 37 88 0 8 4 15 10 15 5
0 7 7 4 15 -4 8 -1 15 5 15 6 0 11 11 11 25 0 14 5 25 10 25 6 0 10 8 10 19 0
10 7 24 15 31 8 7 13 16 10 20 -2 4 5 17 16 28 11 12 17 22 14 22 -3 0 2 15
12 33 9 17 18 34 18 37 1 3 10 23 22 45 11 22 24 55 28 73 3 17 12 32 18 32 7
0 13 10 13 23 2 36 12 68 29 94 9 13 13 28 10 33 -3 5 -1 11 4 14 4 3 12 27
15 53 4 27 10 57 12 68 3 11 8 41 11 68 3 26 8 47 12 47 4 0 7 39 9 88 2 77 7
148 12 162 6 15 4 47 -2 62 -5 9 -3 20 2 23 6 4 8 11 4 16 -11 19 -15 72 -17
266 -1 105 -5 195 -9 199 -5 4 -8 25 -8 46 0 21 -4 38 -9 38 -4 0 -7 11 -6 25
2 14 -1 25 -6 25 -5 0 -9 12 -9 26 0 17 -6 28 -20 31 -18 5 -21 10 -19 29 0 3
-9 14 -21 24 -12 10 -21 21 -21 24 1 18 -13 66 -19 66 -4 0 -7 10 -6 23 3 32
-35 88 -59 88 -2 0 -19 13 -36 29 l-32 29 24 29 c14 15 30 27 37 24 7 -2 12 2
12 9 0 7 3 10 6 6 8 -8 55 34 48 44 -2 4 0 10 6 14 5 3 10 15 10 26 0 10 4 19
8 19 11 0 36 51 33 67 -1 6 3 14 9 18 5 3 10 21 10 40 0 19 4 36 9 39 4 3 7
17 6 31 -2 14 0 25 5 25 4 0 10 18 14 40 4 25 12 40 21 40 8 0 12 6 9 15 -3 8
-2 20 2 27 11 17 12 88 2 88 -4 0 -8 9 -8 20 0 20 -58 140 -73 151 -4 3 -7 10
-5 15 3 13 -25 84 -34 84 -4 0 -8 9 -8 21 0 11 -11 35 -24 52 -15 20 -23 42
-21 59 2 15 -1 30 -6 33 -5 4 -9 34 -9 68 -1 48 -7 74 -29 115 -15 30 -30 53
-34 53 -4 -1 -18 9 -31 20 -22 19 -24 28 -20 78 2 31 5 84 6 119 1 34 5 62 10
62 4 0 8 11 8 24 0 13 7 26 15 30 8 3 15 12 15 20 0 9 6 30 14 48 21 49 29 72
28 81 -1 4 2 7 8 7 5 0 10 9 10 19 0 11 4 22 9 26 5 3 8 18 6 33 -1 15 4 34
12 44 10 11 11 18 3 23 -8 5 -7 14 4 30 8 13 13 34 10 48 -2 14 0 29 6 32 5 3
10 21 10 40 0 19 4 36 8 39 5 3 8 29 7 58 -1 32 4 58 12 66 9 9 10 19 3 31 -5
10 -7 21 -3 24 3 3 5 24 5 46 0 22 2 43 6 45 10 6 4 496 -8 596 -5 47 -11 102
-12 122 -2 21 -7 38 -12 38 -4 0 -6 9 -3 20 3 11 1 20 -4 20 -4 0 -6 7 -3 15
4 8 2 21 -4 28 -5 6 -8 20 -7 30 2 10 -3 21 -10 23 -8 3 -11 12 -9 19 3 7 0
16 -5 20 -6 3 -9 10 -6 15 6 9 -4 22 -62 89 -18 20 -35 44 -39 54 -3 9 -10 17
-15 17 -5 0 -8 3 -7 8 1 4 -11 34 -27 67 -16 33 -28 63 -27 68 1 4 -3 7 -8 7
-6 0 -10 7 -10 15 0 8 -3 15 -7 15 -5 0 -19 18 -32 40 -13 21 -27 38 -31 37
-17 -6 -69 54 -75 87 -4 20 -11 36 -17 36 -5 0 -6 5 -3 10 3 6 1 10 -4 10 -6
0 -11 9 -11 20 0 11 -4 20 -10 20 -5 0 -10 6 -10 13 0 12 -53 67 -65 67 -12 0
-35 28 -35 43 0 7 -3 17 -7 21 -5 4 -8 11 -8 14 -2 21 -43 83 -80 120 -24 23
-41 42 -37 42 3 0 1 5 -6 12 -7 7 -12 31 -12 54 0 24 -5 46 -11 49 -6 4 -8 13
-5 21 3 8 1 14 -4 14 -6 0 -10 11 -10 24 0 14 -5 28 -10 31 -6 4 -8 11 -5 16
4 5 -1 9 -11 9 -13 0 -14 3 -5 14 9 11 9 15 -1 18 -7 3 -13 20 -13 39 -2 54
-29 119 -49 119 -8 0 -18 9 -21 20 -4 11 -10 18 -15 15 -5 -3 -17 3 -27 14 -9
11 -20 18 -25 15 -4 -3 -8 0 -8 5 0 6 -9 11 -20 11 -11 0 -20 4 -20 10 0 5
-14 17 -30 25 -17 9 -35 27 -40 40 -5 14 -14 25 -20 25 -5 0 -10 7 -10 15 0
15 -35 56 -46 54 -16 -4 -104 73 -104 91 0 6 7 13 15 16 8 4 15 14 15 24 0 10
6 20 14 23 12 5 31 60 27 80 0 4 3 7 7 7 5 0 9 15 9 33 0 17 4 46 8 62 3 17 8
46 11 65 2 19 6 50 10 67 3 18 3 41 -1 50 -5 10 -9 38 -10 62 0 25 -5 46 -11
48 -6 2 -8 17 -6 33 2 17 -1 37 -8 45 -7 8 -10 22 -6 30 3 8 1 15 -4 15 -6 0
-10 9 -10 19 0 11 -5 23 -10 26 -6 4 -8 10 -5 15 3 4 -2 11 -10 14 -8 3 -15 9
-14 13 3 20 -3 33 -35 67 -19 20 -42 36 -50 36 -9 0 -16 5 -16 11 0 5 -4 7
-10 4 -5 -3 -10 -1 -10 4 0 6 -16 11 -35 11 -20 0 -35 5 -35 12 0 6 -3 8 -6 5
-6 -6 -24 6 -81 54 -7 5 -13 7 -13 3 0 -3 -7 -1 -16 7 -8 7 -25 14 -37 15 -12
2 -40 5 -62 8 -22 3 -52 8 -67 12 -16 4 -28 2 -28 -4 0 -5 -13 -8 -30 -7 -16
1 -30 -1 -30 -5 0 -8 -51 -34 -62 -32 -5 1 -8 -3 -8 -8 0 -17 -3 -25 -15 -35
-6 -5 -23 -20 -37 -33 -14 -13 -34 -25 -44 -27 -11 -2 -20 -4 -21 -5 -2 -2
-16 -3 -32 -4 -16 0 -33 -4 -37 -8 -4 -5 -16 -8 -26 -8 -10 0 -18 -5 -18 -11
0 -5 -4 -8 -9 -4 -5 3 -12 1 -16 -5 -3 -5 -17 -10 -31 -10 -13 0 -24 -4 -24
-10 0 -5 -3 -9 -7 -8 -13 2 -67 -14 -80 -25 -9 -6 -13 -6 -13 2 0 6 -8 11 -18
11 -11 0 -29 9 -42 20 -12 11 -27 17 -33 13 -5 -3 -8 -2 -5 3 5 9 -27 45 -34
38 -2 -2 -19 10 -37 26 -18 17 -30 30 -26 30 3 0 -6 12 -20 27 -14 15 -25 33
-25 40 0 7 -8 17 -17 22 -10 6 -14 11 -9 11 5 0 1 9 -9 20 -10 11 -14 20 -9
20 5 0 -1 10 -13 23 -19 19 -55 60 -107 118 -9 11 -16 24 -16 29 0 6 -4 10
-10 10 -5 0 -10 7 -10 17 0 9 -3 14 -6 11 -3 -4 -30 19 -59 49 -33 33 -59 52
-66 47 -8 -4 -9 -3 -5 5 5 7 -3 22 -17 35 -14 13 -24 26 -21 28 7 7 -87 98
-101 98 -7 0 -27 13 -44 29 -16 15 -33 26 -35 23 -3 -2 -10 6 -16 19 -7 13
-29 38 -51 54 -22 17 -46 36 -54 43 -8 7 -15 10 -15 5 0 -4 -6 -1 -13 7 -11
14 -34 20 -79 21 -10 0 -20 4 -23 10 -4 5 -17 9 -30 9 -12 0 -26 7 -29 16 -4
9 -9 14 -13 10 -3 -3 -16 0 -28 8 -12 8 -31 13 -41 12 -10 -2 -23 0 -29 4 -20
16 -303 32 -311 18 -3 -4 -16 -8 -29 -8 -15 0 -26 -7 -30 -20 -4 -11 -11 -18
-16 -15 -5 4 -17 1 -26 -4 -10 -6 -14 -11 -8 -11 13 0 -33 -31 -51 -34 -9 -1
-19 -8 -23 -15 -4 -7 -12 -11 -17 -10 -20 4 -76 -15 -81 -27 -3 -8 -11 -14
-19 -14 -8 0 -14 -5 -14 -12 0 -6 -3 -9 -6 -5 -8 8 -44 -30 -44 -47 0 -8 -7
-16 -15 -20 -8 -3 -15 -12 -15 -21 0 -20 -34 -19 -51 3 -8 9 -26 38 -38 64
-13 26 -30 49 -38 52 -8 3 -12 10 -9 15 3 5 -1 11 -9 15 -8 3 -15 12 -15 21 0
8 -4 15 -8 15 -5 0 -22 14 -38 30 -28 30 -71 55 -86 52 -5 -1 -8 2 -8 7 0 5
-8 11 -17 15 -10 3 -25 9 -33 14 -41 24 -62 32 -69 28 -4 -3 -25 0 -47 6 -87
24 -235 31 -274 13 -14 -6 -33 -10 -42 -8 -10 3 -18 -1 -18 -7 0 -7 -7 -9 -16
-6 -14 5 -22 1 -58 -31 -8 -7 -16 -9 -20 -6 -3 4 -6 -3 -6 -15 0 -12 -5 -22
-11 -22 -6 0 -8 -7 -5 -15 8 -22 -38 -70 -69 -73 -14 -1 -25 3 -25 9 0 5 -4 8
-9 5 -4 -3 -26 3 -47 13 -21 11 -45 18 -54 16 -14 -2 -79 54 -72 62 6 7 -43
63 -54 63 -6 0 -17 7 -24 15 -7 9 -19 14 -26 11 -7 -3 -16 -1 -19 4 -4 6 -19
10 -36 10 -16 0 -29 4 -29 8 0 10 -86 35 -117 35 -13 0 -23 4 -23 8 0 11 -134
12 -144 2z m-3663 -3628 c14 -11 26 -27 27 -35 4 -27 0 -41 -10 -35 -5 3 -10
1 -10 -4 0 -15 -147 -14 -155 0 -4 6 -13 8 -20 5 -17 -6 -46 37 -35 53 25 41
160 51 203 16z"/>
</g>
</svg>
