<svg width="183" height="61" viewBox="0 0 183 61" fill="none" xmlns="http://www.w3.org/2000/svg">
<path d="M78.2256 31.026C78.2256 39.4237 71.5595 45.6118 63.3787 45.6118C55.1978 45.6118 48.5317 39.4237 48.5317 31.026C48.5317 22.5692 55.1978 16.4403 63.3787 16.4403C71.5595 16.4403 78.2256 22.5692 78.2256 31.026ZM71.7263 31.026C71.7263 25.7783 67.8628 22.1878 63.3787 22.1878C58.8945 22.1878 55.031 25.7783 55.031 31.026C55.031 36.2211 58.8945 39.8643 63.3787 39.8643C67.8628 39.8643 71.7263 36.2146 71.7263 31.026Z" fill="#E3E4E6" fill-opacity="0.55"/>
<path d="M110.255 31.026C110.255 39.4237 103.589 45.6118 95.408 45.6118C87.2272 45.6118 80.5611 39.4237 80.5611 31.026C80.5611 22.5758 87.2272 16.4403 95.408 16.4403C103.589 16.4403 110.255 22.5692 110.255 31.026ZM103.756 31.026C103.756 25.7783 99.8921 22.1878 95.408 22.1878C90.9239 22.1878 87.0604 25.7783 87.0604 31.026C87.0604 36.2211 90.9239 39.8643 95.408 39.8643C99.8921 39.8643 103.756 36.2146 103.756 31.026Z" fill="#E3E4E6" fill-opacity="0.55"/>
<path d="M140.95 17.3215V43.5075C140.95 54.2791 134.504 58.6785 126.884 58.6785C119.71 58.6785 115.393 53.9503 113.765 50.0835L119.423 47.7622C120.431 50.1361 122.9 52.9376 126.877 52.9376C131.755 52.9376 134.777 49.9717 134.777 44.3886V42.2909H134.551C133.096 44.0598 130.293 45.6052 126.757 45.6052C119.357 45.6052 112.577 39.2527 112.577 31.0786C112.577 22.8454 119.357 16.4403 126.757 16.4403C130.287 16.4403 133.089 17.9857 134.551 19.702H134.777V17.328H140.95V17.3215ZM135.238 31.0786C135.238 25.9427 131.761 22.1878 127.337 22.1878C122.853 22.1878 119.096 25.9427 119.096 31.0786C119.096 36.162 122.853 39.8643 127.337 39.8643C131.761 39.8643 135.238 36.162 135.238 31.0786Z" fill="#E3E4E6" fill-opacity="0.55"/>
<path d="M151.126 1.97281V44.7174H144.787V1.97281H151.126Z" fill="#E3E4E6" fill-opacity="0.55"/>
<path d="M175.829 35.8265L180.873 39.1409C179.245 41.5148 175.322 45.6051 168.542 45.6051C160.134 45.6051 153.855 39.2 153.855 31.0194C153.855 22.3455 160.188 16.4336 167.815 16.4336C175.495 16.4336 179.252 22.4573 180.48 25.7125L181.154 27.3697L161.369 35.4451C162.884 38.3715 165.239 39.8642 168.542 39.8642C171.852 39.8642 174.147 38.2597 175.829 35.8265ZM160.301 30.5788L173.527 25.1667C172.799 23.3451 170.611 22.0759 168.035 22.0759C164.732 22.0759 160.134 24.9497 160.301 30.5788Z" fill="#E3E4E6" fill-opacity="0.55"/>
<path d="M24.5366 27.2316V21.0435H45.696C45.9029 22.122 46.0096 23.3978 46.0096 24.7787C46.0096 29.4214 44.7218 35.1624 40.5713 39.2527C36.5343 43.3956 31.3762 45.6052 24.5433 45.6052C11.8783 45.6052 1.22852 35.4386 1.22852 22.9572C1.22852 10.4757 11.8783 0.309113 24.5433 0.309113C31.5497 0.309113 36.5409 3.01846 40.291 6.54982L35.8603 10.9163C33.1712 8.43058 29.5278 6.49721 24.5366 6.49721C15.2881 6.49721 8.05478 13.8427 8.05478 22.9572C8.05478 32.0716 15.2881 39.4171 24.5366 39.4171C30.5354 39.4171 33.9519 37.0431 36.1406 34.8862C37.9155 33.1369 39.0833 30.638 39.5437 27.225L24.5366 27.2316Z" fill="#E3E4E6" fill-opacity="0.55"/>
</svg>
