<svg width="158" height="40" viewBox="0 0 158 40" fill="none" xmlns="http://www.w3.org/2000/svg">
<path d="M6.67839 13.5381V26.4898C6.67839 28.3338 5.1831 29.829 3.33919 29.829C1.49528 29.829 0 28.3358 0 26.4919V0L22.6569 17.6854V4.73371C22.6569 2.8898 24.1522 1.39452 25.9961 1.39452C27.84 1.39452 29.3353 2.8898 29.3353 4.73371V31.2054L6.67839 13.5381Z" fill="#4B4B4B"/>
<path d="M125.249 1.39648V26.3225C125.249 27.2838 124.888 28.2209 124.201 28.8879C123.556 29.5207 122.772 29.827 121.866 29.827H99.4182C98.4569 29.827 97.5199 29.4783 96.8528 28.7912C96.2201 28.1483 95.9138 27.3624 95.9138 26.4555V6.99472H89.05L82.4482 15.6158L93.3403 29.825H85.8216L78.6072 20.5812L71.5137 29.825H63.8196L74.8307 15.6158L64.005 1.39648H71.5137L78.6072 10.6402L85.8216 1.39648H102.594V24.2368H118.571V1.39648H125.249Z" fill="#4B4B4B"/>
<path d="M131.208 1.39331H152.7C154.245 1.39331 155.497 2.64677 155.497 4.19041C155.497 5.73607 154.243 6.98751 152.7 6.98751H134.511V12.8034H153.792C154.709 12.8034 155.501 13.1399 156.168 13.813C156.835 14.4861 157.168 15.2801 157.168 16.197V26.4524C157.168 27.3814 156.835 28.1774 156.168 28.8363C155.501 29.4973 154.709 29.8278 153.792 29.8278H130.613C129.068 29.8278 127.816 28.5744 127.816 27.0307C127.816 25.4851 129.07 24.2336 130.613 24.2336H150.473V18.3996H131.21C130.281 18.3996 129.483 18.0691 128.816 17.4081C128.149 16.7471 127.816 15.9532 127.816 15.0241V4.76878C127.816 3.85186 128.149 3.05988 128.816 2.39285C129.483 1.72582 130.281 1.39331 131.21 1.39331H131.208Z" fill="#4B4B4B"/>
<path d="M59.2307 1.39331H35.4714C33.9266 1.39331 32.6743 2.64562 32.6743 4.19041V4.19243C32.6743 5.73723 33.9266 6.98953 35.4714 6.98953H59.2307C60.7755 6.98953 62.0278 5.73723 62.0278 4.19243V4.19041C62.0278 2.64562 60.7755 1.39331 59.2307 1.39331Z" fill="#FF7C1A"/>
<path d="M54.0236 12.8159H40.679C39.1342 12.8159 37.8819 14.0682 37.8819 15.613V15.615C37.8819 17.1598 39.1342 18.4121 40.679 18.4121H54.0236C55.5684 18.4121 56.8208 17.1598 56.8208 15.615V15.613C56.8208 14.0682 55.5684 12.8159 54.0236 12.8159Z" fill="#FF7C1A"/>
<path d="M49.0158 24.2334H45.6887C44.1439 24.2334 42.8916 25.4857 42.8916 27.0305V27.0325C42.8916 28.5773 44.1439 29.8296 45.6887 29.8296H49.0158C50.5606 29.8296 51.8129 28.5773 51.8129 27.0325V27.0305C51.8129 25.4857 50.5606 24.2334 49.0158 24.2334Z" fill="#FF7C1A"/>
<path d="M99.9139 38.3271C99.3375 38.3271 98.8378 38.2062 98.4126 37.9624C97.9873 37.7205 97.6569 37.38 97.4231 36.9427C97.1893 36.5054 97.0724 35.9955 97.0724 35.4151C97.0724 34.996 97.143 34.6111 97.282 34.2604C97.4211 33.9098 97.6186 33.6035 97.8725 33.3415C98.1264 33.0795 98.4267 32.878 98.7733 32.7349C99.1199 32.5918 99.4987 32.5193 99.9139 32.5193C100.297 32.5193 100.639 32.5677 100.942 32.6624C101.246 32.7571 101.502 32.8941 101.711 33.0674L101.441 33.4423C101.248 33.277 101.026 33.1561 100.776 33.0755C100.527 32.9949 100.252 32.9566 99.9522 32.9566C99.5914 32.9566 99.263 33.013 98.9667 33.1279C98.6705 33.2427 98.4186 33.406 98.207 33.6196C97.9954 33.8332 97.8342 34.0911 97.7193 34.3934C97.6045 34.6957 97.548 35.0363 97.548 35.4151C97.548 35.9371 97.6488 36.3824 97.8503 36.7492C98.0518 37.116 98.338 37.3961 98.7048 37.5916C99.0735 37.785 99.5068 37.8817 100.007 37.8817C100.317 37.8817 100.611 37.8354 100.887 37.7447C101.163 37.654 101.423 37.5029 101.661 37.2933L101.885 37.6903C101.603 37.914 101.298 38.0752 100.972 38.176C100.645 38.2767 100.291 38.3271 99.9119 38.3271H99.9139Z" fill="#4B4B4B"/>
<path d="M105.422 38.3265C105.012 38.3265 104.634 38.2519 104.281 38.1048C103.928 37.9577 103.624 37.7522 103.362 37.4902C103.1 37.2282 102.896 36.9199 102.751 36.5672C102.606 36.2146 102.532 35.8317 102.532 35.4206C102.532 35.0095 102.604 34.6246 102.751 34.2699C102.896 33.9172 103.1 33.6089 103.362 33.3469C103.624 33.0849 103.93 32.8794 104.281 32.7343C104.632 32.5892 105.012 32.5146 105.422 32.5146C105.831 32.5146 106.205 32.5892 106.556 32.7383C106.907 32.8875 107.213 33.093 107.475 33.359C107.737 33.625 107.943 33.9334 108.09 34.284C108.237 34.6346 108.311 35.0135 108.311 35.4206C108.311 35.8276 108.239 36.2146 108.09 36.5672C107.943 36.9199 107.737 37.2282 107.475 37.4902C107.213 37.7522 106.907 37.9577 106.556 38.1048C106.205 38.2519 105.829 38.3265 105.422 38.3265ZM105.422 37.8811C105.756 37.8811 106.068 37.8227 106.361 37.7058C106.653 37.5889 106.909 37.4237 107.128 37.206C107.348 36.9904 107.521 36.7305 107.646 36.4282C107.771 36.1259 107.834 35.7914 107.834 35.4226C107.834 34.9289 107.725 34.4976 107.509 34.1288C107.294 33.76 107.003 33.4739 106.639 33.2703C106.274 33.0668 105.869 32.964 105.424 32.964C105.089 32.964 104.777 33.0225 104.484 33.1394C104.192 33.2562 103.936 33.4215 103.717 33.6391C103.497 33.8568 103.324 34.1147 103.199 34.415C103.074 34.7152 103.011 35.0518 103.011 35.4226C103.011 35.9163 103.12 36.3476 103.336 36.7163C103.551 37.0851 103.842 37.3713 104.206 37.5748C104.571 37.7784 104.976 37.8811 105.422 37.8811Z" fill="#4B4B4B"/>
<path d="M109.551 38.2092V32.6392H110.004L112.43 36.5225H112.263L114.627 32.6392H115.056V38.2092H114.595V33.3243L114.697 33.3566L112.517 36.857H112.096L109.907 33.3566L109.972 33.3243V38.2092H109.551Z" fill="#4B4B4B"/>
<path d="M118.723 38.3281C118.252 38.3281 117.859 38.2293 117.547 38.0318C117.234 37.8344 116.998 37.5704 116.843 37.2419C116.686 36.9134 116.608 36.5507 116.608 36.1557V32.6392H117.069V36.0912C117.069 36.6897 117.22 37.1391 117.52 37.4353C117.821 37.7316 118.222 37.8807 118.723 37.8807C119.225 37.8807 119.626 37.7316 119.927 37.4353C120.227 37.1391 120.378 36.6897 120.378 36.0912V32.6392H120.839V36.1557C120.839 36.5507 120.761 36.9134 120.604 37.2419C120.446 37.5704 120.213 37.8344 119.9 38.0318C119.588 38.2293 119.195 38.3281 118.723 38.3281Z" fill="#4B4B4B"/>
<path d="M122.391 38.2092V32.6392H122.788L126.113 37.3164V32.6392H126.575V38.2092H126.178L122.853 33.4835V38.2092H122.391Z" fill="#4B4B4B"/>
<path d="M128.167 38.2092V32.6392H128.628V38.2092H128.167Z" fill="#4B4B4B"/>
<path d="M132.709 38.3271C132.133 38.3271 131.633 38.2062 131.208 37.9624C130.783 37.7205 130.452 37.38 130.219 36.9427C129.985 36.5054 129.868 35.9955 129.868 35.4151C129.868 34.996 129.938 34.6111 130.077 34.2604C130.217 33.9098 130.414 33.6035 130.668 33.3415C130.922 33.0795 131.222 32.878 131.569 32.7349C131.915 32.5918 132.294 32.5193 132.709 32.5193C133.092 32.5193 133.435 32.5677 133.737 32.6624C134.041 32.7571 134.297 32.8941 134.507 33.0674L134.237 33.4423C134.043 33.277 133.822 33.1561 133.572 33.0755C133.322 32.9949 133.048 32.9566 132.748 32.9566C132.387 32.9566 132.058 33.013 131.762 33.1279C131.466 33.2427 131.214 33.406 131.002 33.6196C130.791 33.8332 130.63 34.0911 130.515 34.3934C130.4 34.6957 130.344 35.0363 130.344 35.4151C130.344 35.9371 130.444 36.3824 130.646 36.7492C130.847 37.116 131.133 37.3961 131.5 37.5916C131.869 37.785 132.302 37.8817 132.802 37.8817C133.112 37.8817 133.407 37.8354 133.683 37.7447C133.959 37.654 134.219 37.5029 134.457 37.2933L134.68 37.6903C134.398 37.914 134.094 38.0752 133.767 38.176C133.441 38.2767 133.086 38.3271 132.707 38.3271H132.709Z" fill="#4B4B4B"/>
<path d="M135.105 38.2092L137.348 32.6392H137.745L140.085 38.2092H139.567L138.93 36.6817H136.21L135.605 38.2092H135.103H135.105ZM136.379 36.2524H138.757L137.532 33.3243L136.379 36.2524Z" fill="#4B4B4B"/>
<path d="M143.355 38.3271C142.779 38.3271 142.279 38.2062 141.854 37.9624C141.429 37.7205 141.098 37.38 140.865 36.9427C140.631 36.5054 140.514 35.9955 140.514 35.4151C140.514 34.996 140.585 34.6111 140.724 34.2604C140.863 33.9098 141.06 33.6035 141.314 33.3415C141.568 33.0795 141.868 32.878 142.215 32.7349C142.561 32.5918 142.94 32.5193 143.355 32.5193C143.738 32.5193 144.081 32.5677 144.383 32.6624C144.687 32.7571 144.943 32.8941 145.153 33.0674L144.883 33.4423C144.689 33.277 144.468 33.1561 144.218 33.0755C143.968 32.9949 143.694 32.9566 143.394 32.9566C143.033 32.9566 142.704 33.013 142.408 33.1279C142.112 33.2427 141.86 33.406 141.649 33.6196C141.437 33.8332 141.276 34.0911 141.161 34.3934C141.046 34.6957 140.99 35.0363 140.99 35.4151C140.99 35.9371 141.09 36.3824 141.292 36.7492C141.493 37.116 141.78 37.3961 142.146 37.5916C142.515 37.785 142.948 37.8817 143.448 37.8817C143.758 37.8817 144.053 37.8354 144.329 37.7447C144.605 37.654 144.865 37.5029 145.103 37.2933L145.326 37.6903C145.044 37.914 144.74 38.0752 144.413 38.176C144.087 38.2767 143.732 38.3271 143.353 38.3271H143.355ZM143.132 39.9977C142.973 39.9977 142.825 39.9776 142.69 39.9393C142.555 39.901 142.432 39.8466 142.32 39.774L142.471 39.4314C142.519 39.4879 142.606 39.5362 142.733 39.5765C142.86 39.6168 142.987 39.639 143.116 39.639C143.234 39.639 143.351 39.6128 143.464 39.5584C143.577 39.504 143.634 39.4113 143.634 39.2823C143.634 39.1413 143.561 39.0445 143.416 38.9921C143.271 38.9397 143.114 38.9236 142.94 38.9478L142.805 38.71L143.021 38.049H143.347L143.188 38.583C143.44 38.5992 143.65 38.6636 143.815 38.7785C143.98 38.8934 144.063 39.0566 144.063 39.2682C144.063 39.4496 144.01 39.5927 143.908 39.6995C143.805 39.8063 143.68 39.8828 143.535 39.9292C143.39 39.9755 143.255 39.9997 143.132 39.9997V39.9977Z" fill="#4B4B4B"/>
<path d="M145.75 38.209L147.993 32.639H148.39L150.729 38.209H150.211L149.575 36.6815H146.854L146.249 38.209H145.748H145.75ZM147.086 31.7079L146.783 31.5326C146.868 31.3291 146.979 31.1638 147.116 31.0409C147.253 30.918 147.412 30.8555 147.596 30.8555C147.747 30.8555 147.89 30.8877 148.027 30.9522C148.164 31.0167 148.295 31.0832 148.42 31.1477C148.545 31.2122 148.668 31.2444 148.789 31.2444C148.91 31.2444 149.006 31.2041 149.089 31.1215C149.172 31.0389 149.242 30.926 149.298 30.783L149.601 30.9663C149.514 31.1739 149.399 31.3351 149.256 31.452C149.113 31.5689 148.956 31.6273 148.781 31.6273C148.631 31.6273 148.49 31.5951 148.355 31.5326C148.22 31.4681 148.089 31.4057 147.964 31.3412C147.839 31.2767 147.717 31.2465 147.596 31.2465C147.485 31.2465 147.386 31.2847 147.303 31.3593C147.221 31.4339 147.148 31.5508 147.086 31.7079ZM147.021 36.2502H149.399L148.174 33.3221L147.021 36.2502Z" fill="#4B4B4B"/>
<path d="M154.048 38.3265C153.639 38.3265 153.26 38.2519 152.907 38.1048C152.555 37.9577 152.25 37.7522 151.988 37.4902C151.726 37.2282 151.523 36.9199 151.378 36.5672C151.233 36.2146 151.158 35.8317 151.158 35.4206C151.158 35.0095 151.231 34.6246 151.378 34.2699C151.523 33.9172 151.726 33.6089 151.988 33.3469C152.25 33.0849 152.557 32.8794 152.907 32.7343C153.258 32.5892 153.639 32.5146 154.048 32.5146C154.457 32.5146 154.832 32.5892 155.183 32.7383C155.533 32.8875 155.839 33.093 156.101 33.359C156.363 33.625 156.569 33.9334 156.716 34.284C156.863 34.6346 156.938 35.0135 156.938 35.4206C156.938 35.8276 156.865 36.2146 156.716 36.5672C156.569 36.9199 156.363 37.2282 156.101 37.4902C155.839 37.7522 155.533 37.9577 155.183 38.1048C154.832 38.2519 154.455 38.3265 154.048 38.3265ZM154.048 37.8811C154.382 37.8811 154.695 37.8227 154.987 37.7058C155.279 37.5889 155.535 37.4237 155.755 37.206C155.975 36.9904 156.148 36.7305 156.273 36.4282C156.398 36.1259 156.46 35.7914 156.46 35.4226C156.46 34.9289 156.351 34.4976 156.136 34.1288C155.92 33.76 155.63 33.4739 155.265 33.2703C154.9 33.0668 154.495 32.964 154.05 32.964C153.715 32.964 153.403 33.0225 153.111 33.1394C152.819 33.2562 152.563 33.4215 152.343 33.6391C152.123 33.8568 151.95 34.1147 151.825 34.415C151.7 34.7152 151.638 35.0518 151.638 35.4226C151.638 35.9163 151.747 36.3476 151.962 36.7163C152.178 37.0851 152.468 37.3713 152.833 37.5748C153.198 37.7784 153.603 37.8811 154.048 37.8811Z" fill="#4B4B4B"/>
</svg>
