<?xml version="1.0" encoding="UTF-8"?><svg id="Camada_2" xmlns="http://www.w3.org/2000/svg" xmlns:xlink="http://www.w3.org/1999/xlink" viewBox="0 0 509.84 593.96"><defs><style>.cls-1{fill:none;stroke:#fff;stroke-miterlimit:10;stroke-width:10px;}.cls-2{fill:url(#Gradiente_sem_nome_35);}</style><linearGradient id="Gradiente_sem_nome_35" x1="21.7" y1="635.28" x2="715.17" y2="111.58" gradientUnits="userSpaceOnUse"><stop offset="0" stop-color="#2d2e83"/><stop offset="1" stop-color="#e71d73"/></linearGradient></defs><g id="Camada_2-2"><path class="cls-2" d="m170.8,507.3h40.74c-10.69-.01-30.31-.01-40.74,0Z"/><path class="cls-1" d="m507.34,423.2c0,30.63-8.19,59.36-22.49,84.1-14.78,25.56-36.08,46.85-61.63,61.65-24.75,14.31-53.5,22.51-84.15,22.51h-85.58c-11.8-.19-23.01-2.82-33.16-7.39h0c-13-5.88-24.24-14.98-32.71-26.25-10.55-14.06-16.81-31.55-16.81-50.48v-.04h40.74c5.91,0,29.47,0,43.2.02,26.55.03,44.72.1,57.25.17,0,0,18.53-.36,25.48.07.01,0,.58.04,1.35.04,1.17,0,1.81-.08,2.21-.14,0,0,.37-.06.75-.15,40.87-9.11,81.44-49.68,81.44-84.1,0-46.49-37.68-84.15-84.15-84.15,30.65,0,59.4-8.21,84.15-22.53,9.7-5.62,18.79-12.16,27.13-19.53,13.64,12.02,25.31,26.21,34.47,42.06,14.32,24.75,22.52,53.48,22.52,84.15Z"/><path class="cls-1" d="m254.92,85.18v169.73h-84.12V2.5c.72,0,1.44,0,2.17.01h.01c26.64.68,50.19,13.73,65.14,33.63,10.29,13.7,16.5,30.66,16.8,49.04Z"/><rect class="cls-1" x="170.8" y="339.05" width="84.12" height="168.25"/><path class="cls-1" d="m484.81,86.61h-229.87c0-.48,0-.97-.02-1.43-.3-18.38-6.51-35.34-16.8-49.04C223.17,16.24,199.62,3.19,172.98,2.51h-.01c-.24-.01-.48-.01-.72-.01h166.82c30.65,0,59.4,8.2,84.15,22.52,25.53,14.78,46.82,36.05,61.59,61.59Z"/><path class="cls-1" d="m507.34,170.77v.03c0,22.7-4.5,44.35-12.66,64.11h-101.15c18.16-15.42,29.68-38.42,29.69-64.11v-.03c0-25.71-11.54-48.73-29.72-64.16h101.16c8.18,19.77,12.68,41.44,12.68,64.16Z"/><path class="cls-1" d="m484.82,254.91c-9.16,15.85-20.83,30.05-34.47,42.08-8.34,7.37-17.43,13.91-27.13,19.53-24.75,14.32-53.5,22.53-84.15,22.53H2.5c0-15.33,4.09-29.69,11.26-42.06,5.7-9.86,13.34-18.47,22.4-25.27,13.53-10.15,30.2-16.33,48.31-16.79h.01c.73-.02,1.45-.02,2.17-.02s1.45,0,2.17.02c-.24-.02-.48-.02-.72-.02h396.72Z"/><path class="cls-1" d="m86.82,165.38c-.11,1.78-.17,3.58-.17,5.39v84.12c-.24,0-.48,0-.72.01-.25,0-.49,0-.73.01-.24,0-.48,0-.72.02h-.01c-18.11.46-34.78,6.64-48.31,16.79-9.06,6.8-16.7,15.41-22.4,25.27-7.17,12.37-11.26,26.73-11.26,42.06v-168.25c0,.71.01,1.44.03,2.15-.01-.71-.01-1.44-.01-2.15v-.03c0-.71,0-1.44.01-2.17h0c.19-14.89,2.31-29.31,6.13-43.03,26.05,13.27,52.11,26.54,78.16,39.81Z"/><path class="cls-1" d="m170.8,2.5v84.13c-15.33,0-29.7,4.09-42.08,11.26-12.77,7.38-23.42,18.04-30.81,30.81-6.31,10.92-10.25,23.38-11.09,36.68-26.05-13.27-52.11-26.54-78.16-39.81,3.83-13.77,9.37-26.83,16.38-38.94,14.78-25.55,36.07-46.83,61.61-61.61C110.82,11.03,138.78,2.89,168.62,2.51h.01c.73-.01,1.45-.01,2.17-.01Z"/><path class="cls-1" d="m86.65,339.08v168.26c0,18.93-6.26,36.42-16.82,50.48-8.47,11.27-19.71,20.37-32.71,26.24-10.15,4.58-21.36,7.21-33.17,7.4h-1.45v-168.26c0,.73.01,1.44.03,2.17-.01-.73-.01-1.44-.01-2.17s0-1.44.01-2.18c-.02.72-.03,1.42-.03,2.15v-84.12h82.14c.66.02,1.34.03,2.01.03Z"/></g></svg>